<?xml version="1.0" encoding="UTF-8"?>
<svg xmlns="http://www.w3.org/2000/svg" style="display: none;">
    <defs>
        <!-- Close icon -->
        <symbol id="icon-close" viewBox="0 0 24 24">
            <path d="M6 6l12 12M6 18L18 6" stroke="currentColor" stroke-width="2" stroke-linecap="round" />
        </symbol>

        <!-- Menu icon -->
        <symbol id="icon-menu" viewBox="0 0 24 24">
            <path d="M3 12h18M3 6h18M3 18h18" stroke="currentColor" stroke-width="2" stroke-linecap="round" />
        </symbol>

        <!-- Hide zeros icon -->
        <symbol id="icon-hide-zeros" viewBox="0 0 24 24" fill="none" stroke="currentColor" stroke-width="2">
            <ellipse cx="12" cy="12" rx="7" ry="10" />
            <line x1="1" y1="1" x2="23" y2="23" />
        </symbol>

        <!-- Light theme icon -->
        <symbol id="icon-light-theme" viewBox="0 0 24 24">
            <circle cx="12" cy="12" r="5" fill="none" stroke="currentColor" stroke-width="2" />
            <path d="M12 1v2M12 21v2M4.22 4.22l1.42 1.42M18.36 18.36l1.42 1.42M1 12h2M21 12h2M4.22 19.78l1.42-1.42M18.36 5.64l1.42-1.42" stroke="currentColor" stroke-width="2" stroke-linecap="round" stroke-linejoin="round" fill="none" />
        </symbol>

        <!-- Dark theme icon -->
        <symbol id="icon-dark-theme" viewBox="0 0 24 24">
            <path d="M21 12.79A9 9 0 1 1 11.21 3 7 7 0 0 0 21 12.79z" fill="none" stroke="currentColor" stroke-width="2" stroke-linecap="round" stroke-linejoin="round" />
        </symbol>

        <!-- Info icon -->
        <symbol id="icon-info" viewBox="0 0 24 24">
            <circle cx="12" cy="12" r="10" fill="none" stroke="currentColor" stroke-width="2" />
            <circle cx="12" cy="8" r="1" fill="currentColor" />
            <path d="M12 11v7" stroke="currentColor" stroke-width="2" stroke-linecap="round" />
        </symbol>

        <!-- Copy icon -->
        <symbol id="icon-copy" viewBox="0 0 24 24" fill="none" stroke="currentColor" stroke-width="2" stroke-linecap="round" stroke-linejoin="round">
            <rect x="9" y="9" width="13" height="13" rx="2" ry="2" />
            <path d="M5 15H4a2 2 0 0 1-2-2V4a2 2 0 0 1 2-2h9a2 2 0 0 1 2 2v1" />
        </symbol>

        <!-- Gray layout icon -->
        <symbol id="icon-gray-layout" viewBox="0 0 24 24">
            <rect x="4" y="4" width="7" height="7" fill="none" stroke="currentColor" stroke-width="2" />
            <rect x="13" y="13" width="7" height="7" fill="none" stroke="currentColor" stroke-width="2" />
            <path d="M17 7l3-3-3-3M7 17l-3 3 3 3" stroke="currentColor" stroke-width="2" stroke-linecap="round" stroke-linejoin="round" fill="none" />
        </symbol>

        <!-- Binary layout icon -->
        <symbol id="icon-binary-layout" viewBox="0 0 24 24">
            <rect x="4" y="13" width="7" height="7" fill="none" stroke="currentColor" stroke-width="2" />
            <rect x="13" y="4" width="7" height="7" fill="none" stroke="currentColor" stroke-width="2" />
            <path d="M7 7l-3-3 3-3M17 17l3 3-3 3" stroke="currentColor" stroke-width="2" stroke-linecap="round" stroke-linejoin="round" fill="none" />
        </symbol>

        <!-- Check icon -->
        <symbol id="icon-check" viewBox="0 0 24 24" fill="none" stroke="currentColor" stroke-width="2" stroke-linecap="round" stroke-linejoin="round">
            <path d="M20 6L9 17l-5-5" />
        </symbol>

        <!-- X icon -->
        <symbol id="icon-x" viewBox="0 0 24 24" fill="none" stroke="currentColor" stroke-width="2" stroke-linecap="round" stroke-linejoin="round">
            <path d="M18 6L6 18" />
            <path d="M6 6l12 12" />
        </symbol>

        <!-- Update icon -->
        <symbol id="icon-update" viewBox="0 0 24 24">
            <path fill="currentColor" d="M21 10.12h-6.78l2.74-2.82c-2.73-2.7-7.15-2.8-9.88-.1-2.73 2.71-2.73 7.08 0 9.79s7.15 2.71 9.88 0C18.32 15.65 19 14.08 19 12.1h2c0 1.98-.88 4.55-2.64 6.29-3.51 3.48-9.21 3.48-12.72 0-3.5-3.47-3.53-9.11-.02-12.58 3.51-3.47 9.14-3.47 12.65 0L21 3v7.12zM12.5 8v4.25l3.5 2.08-.72 1.21L11 13V8h1.5z"/>
        </symbol>

        <!-- Clear icon -->
        <symbol id="icon-clear" viewBox="0 0 24 24" fill="none" stroke="currentColor" stroke-width="2" stroke-linecap="round" stroke-linejoin="round">
            <path d="M3 6h18" />
            <path d="M19 6v14a2 2 0 01-2 2H7a2 2 0 01-2-2V6m3 0V4a2 2 0 012-2h4a2 2 0 012 2v2" />
        </symbol>
    </defs>
</svg>
