<?xml version="1.0" encoding="UTF-8"?>
<svg xmlns="http://www.w3.org/2000/svg" style="display: none;">
    <defs>
        <!-- Close icon -->
        <symbol id="icon-close" viewBox="0 0 24 24">
            <path d="M18 6L6 18M6 6l12 12" stroke="currentColor" fill="none" stroke-width="2" stroke-linecap="round" stroke-linejoin="round"/>
        </symbol>

        <!-- Menu icon -->
        <symbol id="icon-menu" viewBox="0 0 24 24">
            <path d="M3 12h18M3 6h18M3 18h18" stroke="currentColor" fill="none" stroke-width="2" stroke-linecap="round" stroke-linejoin="round"/>
        </symbol>

        <!-- Hide zeros icon -->
        <symbol id="icon-hide-zeros" viewBox="0 0 24 24">
            <ellipse cx="12" cy="12" rx="7" ry="10" stroke="currentColor" fill="none" stroke-width="2"/>
            <line x1="7" y1="7" x2="17" y2="17" stroke="currentColor" fill="none" stroke-width="2" stroke-linecap="round"/>
        </symbol>

        <!-- Sun icon (Light theme) -->
        <symbol id="icon-sun" viewBox="0 0 24 24">
            <circle cx="12" cy="12" r="5" fill="none" stroke="currentColor" stroke-width="2" stroke-linecap="round" stroke-linejoin="round"/>
            <path d="M12 1v2M12 21v2M4.22 4.22l1.42 1.42M18.36 18.36l1.42 1.42M1 12h2M21 12h2M4.22 19.78l1.42-1.42M18.36 5.64l1.42-1.42" stroke="currentColor" fill="none" stroke-width="2" stroke-linecap="round" stroke-linejoin="round"/>
        </symbol>

        <!-- Moon icon (Dark theme - Filled style for convention) -->
        <symbol id="icon-moon" viewBox="0 0 24 24">
            <path d="M21 12.79A9 9 0 1 1 11.21 3 7 7 0 0 0 21 12.79z" fill="currentColor"/>
        </symbol>

        <!-- Info icon (Mixed style: outline + filled dot) -->
        <symbol id="icon-info" viewBox="0 0 24 24">
            <circle cx="12" cy="12" r="10" fill="none" stroke="currentColor" stroke-width="2" stroke-linecap="round" stroke-linejoin="round"/>
            <line x1="12" y1="16" x2="12" y2="12" stroke="currentColor" stroke-width="2" stroke-linecap="round" stroke-linejoin="round"/>
            <circle cx="12" cy="8" r="1" fill="currentColor"/>
        </symbol>

        <!-- Copy icon -->
        <symbol id="icon-copy" viewBox="0 0 24 24">
            <rect x="9" y="9" width="13" height="13" rx="2" ry="2" fill="none" stroke="currentColor" stroke-width="2" stroke-linecap="round" stroke-linejoin="round"/>
            <path d="M5 15H4a2 2 0 0 1-2-2V4a2 2 0 0 1 2-2h9a2 2 0 0 1 2 2v1" fill="none" stroke="currentColor" stroke-width="2" stroke-linecap="round" stroke-linejoin="round"/>
        </symbol>

        <!-- Layout Diagonal A icon -->
        <symbol id="icon-layout-diagonal-a" viewBox="0 0 24 24">
            <rect x="4" y="4" width="7" height="7" fill="none" stroke="currentColor" stroke-width="2" stroke-linecap="round" stroke-linejoin="round"/>
            <rect x="13" y="13" width="7" height="7" fill="none" stroke="currentColor" stroke-width="2" stroke-linecap="round" stroke-linejoin="round"/>
            <path d="M17 7l3-3M7 17l-3 3" stroke="currentColor" fill="none" stroke-width="2" stroke-linecap="round" stroke-linejoin="round"/>
        </symbol>

        <!-- Layout Diagonal B icon -->
        <symbol id="icon-layout-diagonal-b" viewBox="0 0 24 24">
            <rect x="4" y="13" width="7" height="7" fill="none" stroke="currentColor" stroke-width="2" stroke-linecap="round" stroke-linejoin="round"/>
            <rect x="13" y="4" width="7" height="7" fill="none" stroke="currentColor" stroke-width="2" stroke-linecap="round" stroke-linejoin="round"/>
            <path d="M7 7l-3 3M17 17l3-3" stroke="currentColor" fill="none" stroke-width="2" stroke-linecap="round" stroke-linejoin="round"/>
        </symbol>

        <!-- Check icon -->
        <symbol id="icon-check" viewBox="0 0 24 24">
            <path d="M20 6L9 17l-5-5" fill="none" stroke="currentColor" stroke-width="2" stroke-linecap="round" stroke-linejoin="round"/>
        </symbol>

        <!-- Refresh icon (Standard circular arrow style) -->
        <symbol id="icon-refresh" viewBox="0 0 24 24">
            <path d="M23 4v6h-6" stroke="currentColor" fill="none" stroke-width="2" stroke-linecap="round" stroke-linejoin="round"/>
            <path d="M20.49 15a9 9 0 1 1-2.12-9.36L23 10" stroke="currentColor" fill="none" stroke-width="2" stroke-linecap="round" stroke-linejoin="round"/>
        </symbol>

        <!-- Trash icon -->
        <symbol id="icon-trash" viewBox="0 0 24 24">
            <path d="M3 6h18M19 6v14a2 2 0 0 1-2 2H7a2 2 0 0 1-2-2V6m3 0V4a2 2 0 0 1 2-2h4a2 2 0 0 1 2 2v2M10 11v6M14 11v6" fill="none" stroke="currentColor" stroke-width="2" stroke-linecap="round" stroke-linejoin="round"/>
        </symbol>

        <!-- Settings gear icon -->
        <symbol id="icon-settings" viewBox="0 0 24 24">
            <circle cx="12" cy="12" r="3" fill="none" stroke="currentColor" stroke-width="2" stroke-linecap="round" stroke-linejoin="round"/>
            <path d="M19.4 15a1.65 1.65 0 0 0 .33 1.82l.06.06a2 2 0 0 1 0 2.83 2 2 0 0 1-2.83 0l-.06-.06a1.65 1.65 0 0 0-1.82-.33 1.65 1.65 0 0 0-1 1.51V21a2 2 0 0 1-2 2 2 2 0 0 1-2-2v-.09A1.65 1.65 0 0 0 9 19.4a1.65 1.65 0 0 0-1.82.33l-.06.06a2 2 0 0 1-2.83 0 2 2 0 0 1 0-2.83l.06-.06a1.65 1.65 0 0 0 .33-1.82 1.65 1.65 0 0 0-1.51-1H3a2 2 0 0 1-2-2 2 2 0 0 1 2-2h.09A1.65 1.65 0 0 0 4.6 9a1.65 1.65 0 0 0-.33-1.82l-.06-.06a2 2 0 0 1 0-2.83 2 2 0 0 1 2.83 0l.06.06a1.65 1.65 0 0 0 1.82.33H9a1.65 1.65 0 0 0 1-1.51V3a2 2 0 0 1 2-2 2 2 0 0 1 2 2v.09a1.65 1.65 0 0 0 1 1.51 1.65 1.65 0 0 0 1.82-.33l.06-.06a2 2 0 0 1 2.83 0 2 2 0 0 1 0 2.83l-.06.06a1.65 1.65 0 0 0-.33 1.82V9a1.65 1.65 0 0 0 1.51 1H21a2 2 0 0 1 2 2 2 2 0 0 1-2 2h-.09a1.65 1.65 0 0 0-1.51 1z" fill="none" stroke="currentColor" stroke-width="2" stroke-linecap="round" stroke-linejoin="round"/>
        </symbol>
    </defs>
</svg>
